<svg xmlns="http://www.w3.org/2000/svg" width="16.174" height="10.981" viewBox="0 0 16.174 10.981">
  <g id="Group_29" data-name="Group 29" transform="translate(-2 -1)">
    <path id="Path_20" data-name="Path 20" d="M18.683,16.679a.584.584,0,0,0-.411-.17.574.574,0,0,0-.411.17.567.567,0,0,0-.17.411.592.592,0,0,0,.17.411l.676.672H15.405l-5.144-6.43,0,0a.6.6,0,0,0-.448-.207H5.081a.581.581,0,1,0,0,1.161H9.536l2.178,2.738L9.536,18.168H5.081a.581.581,0,1,0,0,1.161H9.81a.58.58,0,0,0,.444-.207l0,0,2.207-2.771,2.207,2.771,0,0a.58.58,0,0,0,.444.207h3.5L17.944,20a.56.56,0,0,0-.17.411.592.592,0,0,0,.17.411.584.584,0,0,0,.411.17.574.574,0,0,0,.411-.17l1.394-1.385a.9.9,0,0,0,0-1.286Z" transform="translate(-2.5 -9.012)" fill="#ff6e6e"/>
    <path id="Path_21" data-name="Path 21" d="M19.253,12.733a.214.214,0,0,0,.171.078h0a.217.217,0,0,0,.171-.082l1.41-1.759h2.82l-.606.6a.5.5,0,0,0-.153.368.531.531,0,0,0,.153.368.524.524,0,0,0,.368.153.515.515,0,0,0,.368-.153l1.324-1.317a.808.808,0,0,0,0-1.153L24.033,8.6a.524.524,0,0,0-.368-.153A.515.515,0,0,0,23.3,8.6a.509.509,0,0,0-.153.368.531.531,0,0,0,.153.368l.606.6h-3.14a.52.52,0,0,0-.4.186l0,0-1.5,1.867a.219.219,0,0,0,0,.283Z" transform="translate(-7.351 -7.445)" fill="#ff6e6e"/>
  </g>
</svg>
